<svg width="67" height="37" viewBox="0 0 67 37" fill="none" xmlns="http://www.w3.org/2000/svg">
<path d="M41.3619 22.7631C40.5966 22.7631 39.8925 22.8854 39.1884 23.0994C39.1884 22.9772 39.1884 22.8548 39.1884 22.7631C39.1884 19.6142 36.6169 17.0462 33.4637 17.0462C32.8821 17.0462 32.3311 17.138 31.78 17.2908C31.1984 11.8185 26.5758 7.53839 20.943 7.53839C15.0041 7.53839 10.1978 12.2464 10.0448 18.1162C9.98353 18.1162 9.92229 18.1162 9.86106 18.1162C4.71807 18.1162 0.554688 22.274 0.554688 27.4101C0.554688 32.5462 4.71807 36.704 9.86106 36.704H41.3619C45.2192 36.704 48.3417 33.5856 48.3417 29.7336C48.3417 25.8815 45.2192 22.7631 41.3619 22.7631Z" fill="white"/>
<path d="M59.2082 16.0374C58.4429 16.0374 57.7388 16.1597 57.0347 16.3737C57.0347 16.2514 57.0347 16.1291 57.0347 16.0374C57.0347 12.8885 54.4632 10.3205 51.3101 10.3205C50.7284 10.3205 50.1774 10.4122 49.6569 10.565C49.0753 5.09268 44.4527 0.782104 38.7893 0.782104C33.8912 0.782104 29.7584 3.99208 28.3809 8.45557C30.6156 10.1065 32.2687 12.4605 33.0034 15.2731C33.0341 15.3954 33.1871 15.5177 33.3096 15.5177H33.4626C36.7994 15.5177 39.7077 17.78 40.5036 21.0207C40.5342 21.1735 40.6873 21.2652 40.8098 21.2652C40.9628 21.2652 41.1465 21.2652 41.2996 21.2652C45.9834 21.2652 49.81 25.0867 49.81 29.7642C49.81 29.8559 49.81 29.9171 49.81 30.0088H59.147C63.0043 30.0088 66.1268 26.8905 66.1268 23.0384C66.1268 19.1864 63.0043 16.068 59.147 16.068L59.2082 16.0374Z" fill="white"/>
</svg>
