<svg width="48" height="46" viewBox="0 0 48 46" fill="none" xmlns="http://www.w3.org/2000/svg">
<path d="M40.8424 15.8245C40.077 15.8245 39.373 15.9467 38.6688 16.1607C38.6688 16.0384 38.6688 15.9467 38.6688 15.8245C38.6688 12.6756 36.1279 10.138 32.9442 10.138C32.3625 10.138 31.8115 10.2298 31.2911 10.3827C30.7401 4.91032 26.0868 0.630249 20.454 0.630249C14.5457 0.630249 9.73949 5.33829 9.58643 11.2081H9.40271C4.29033 11.2081 0.126953 15.3658 0.126953 20.4713C0.126953 25.5768 4.29033 29.7346 9.40271 29.7346H40.8118C44.669 29.7346 47.7609 26.6163 47.7609 22.7948C47.7609 18.9734 44.6384 15.8551 40.8118 15.8551L40.8424 15.8245Z" fill="white"/>
<path d="M21.2785 31.9664H25.6868L21.7683 35.849L28.2277 35.8185L14.4824 45.8154L22.2888 37.9584H15.3396L21.2785 31.9664Z" fill="white"/>
</svg>
