<svg width="55" height="39" viewBox="0 0 55 39" fill="none" xmlns="http://www.w3.org/2000/svg">
<path d="M39.7696 17.3954C44.4841 20.5137 50.821 19.1991 53.9435 14.491C54.2496 14.0324 54.4945 13.5739 54.7088 13.0847C51.4638 14.9496 47.3005 14.9802 43.9636 12.7484C39.7084 9.9358 38.239 4.49406 40.2901 0C39.4941 0.458578 38.7288 1.03937 38.0553 1.74252C37.6267 2.2011 37.2288 2.69028 36.8614 3.21001C33.7389 7.91807 35.0246 14.2465 39.739 17.3648L39.7696 17.3954Z" fill="#FFF479"/>
<path d="M40.899 24.7631C40.1337 24.7631 39.4296 24.8854 38.7255 25.0994C38.7255 24.9772 38.7255 24.8854 38.7255 24.7631C38.7255 21.6142 36.154 19.0462 33.0008 19.0462C32.4192 19.0462 31.8681 19.138 31.3477 19.2908C30.7967 13.8185 26.1435 9.53839 20.5107 9.53839C14.6024 9.53839 9.79611 14.2464 9.64305 20.1162C9.58182 20.1162 9.5206 20.1162 9.45937 20.1162C4.34699 20.1162 0.183594 24.274 0.183594 29.3795C0.183594 34.485 4.34699 38.6428 9.45937 38.6428H40.8684C44.695 38.6428 47.8176 35.5245 47.8176 31.703C47.8176 27.8815 44.695 24.7631 40.8684 24.7631H40.899Z" fill="white"/>
</svg>
