<svg width="93" height="66" viewBox="0 0 93 66" fill="none" xmlns="http://www.w3.org/2000/svg">
<path d="M75.7175 34.0583C72.1527 34.0583 68.6881 33.0183 65.7041 31.0483C61.6586 28.3783 58.8949 24.2883 57.9236 19.5383C56.9523 14.7883 57.8935 9.94833 60.5772 5.89833C61.198 4.95833 61.9089 4.07833 62.68 3.28833C63.8415 2.07833 65.1834 1.03833 66.6553 0.198325C67.2261 -0.121675 67.9371 -0.0516721 68.4177 0.388328C68.8984 0.828328 69.0486 1.52833 68.7782 2.11833C65.664 8.92833 67.9571 16.8783 74.2255 21.0183C76.7189 22.6583 79.6028 23.5283 82.5668 23.5283C85.2304 23.5283 87.8639 22.8283 90.167 21.4983C90.7378 21.1683 91.4487 21.2483 91.9294 21.6883C92.41 22.1283 92.5502 22.8283 92.2799 23.4183C91.8693 24.3083 91.4087 25.1483 90.898 25.9083C87.5234 31.0083 81.8558 34.0483 75.7276 34.0483L75.7175 34.0583ZM64.5926 5.61833C64.0418 6.21833 63.5311 6.85833 63.0805 7.54833C60.8475 10.9183 60.0565 14.9683 60.8675 18.9283C61.6786 22.8983 63.9817 26.3083 67.3663 28.5383C69.8597 30.1883 72.7435 31.0583 75.7175 31.0583C80.1135 31.0583 84.229 29.1783 87.0829 25.9583C85.6109 26.3383 84.0788 26.5283 82.5467 26.5283C78.9819 26.5283 75.5273 25.4883 72.5433 23.5183C66.4551 19.4983 63.5011 12.4883 64.5825 5.61833H64.5926Z" fill="white"/>
<path d="M68.3685 65.9183H17.1995C8.0372 65.9183 0.577148 58.4683 0.577148 49.3183C0.577148 40.1683 7.43638 33.3283 16.088 32.7583C17.0694 22.9783 25.2103 15.5183 35.2238 15.5183C44.5564 15.5183 52.3969 22.0983 54.1092 31.0783C54.5899 31.0083 55.0806 30.9783 55.5712 30.9783C61.0786 30.9783 65.6348 35.1083 66.2957 40.4383C66.9766 40.3283 67.6675 40.2683 68.3685 40.2683C75.448 40.2683 81.2057 46.0183 81.2057 53.0883C81.2057 60.1583 75.448 65.9083 68.3685 65.9083V65.9183ZM17.1995 35.7283C9.68942 35.7283 3.58119 41.8283 3.58119 49.3283C3.58119 56.8283 9.68942 62.9283 17.1995 62.9283H68.3685C73.7958 62.9283 78.2017 58.5183 78.2017 53.1083C78.2017 47.6983 73.7858 43.2883 68.3685 43.2883C67.327 43.2883 66.3057 43.4483 65.3143 43.7683C64.8437 43.9183 64.323 43.8283 63.9325 43.5283C63.542 43.2283 63.3217 42.7483 63.3517 42.2583V42.0883C63.3717 41.9883 63.3817 41.8883 63.3817 41.7883C63.3817 37.4883 59.887 33.9983 55.5812 33.9983C54.8102 33.9983 54.0492 34.1083 53.3082 34.3383C52.8776 34.4683 52.417 34.3983 52.0365 34.1483C51.666 33.8983 51.4156 33.4983 51.3756 33.0483C50.5244 24.7683 43.5751 18.5283 35.2338 18.5283C26.3819 18.5283 19.2623 25.4483 19.012 34.2783C18.992 35.0983 18.3311 35.7783 17.4899 35.7383H17.2096L17.1995 35.7283Z" fill="white"/>
</svg>
