<svg width="49" height="46" viewBox="0 0 49 46" fill="none" xmlns="http://www.w3.org/2000/svg">
<path d="M41.1646 15.7938C40.3993 15.7938 39.6952 15.9162 38.9911 16.1302C38.9911 16.0079 38.9911 15.9161 38.9911 15.7938C38.9911 12.6449 36.4502 10.1075 33.2664 10.1075C32.6848 10.1075 32.1338 10.1992 31.6134 10.352C31.0623 4.87968 26.4091 0.599609 20.7763 0.599609C14.868 0.599609 10.0618 5.30765 9.90869 11.1774C9.84747 11.1774 9.7862 11.1774 9.72498 11.1774C4.61259 11.1774 0.449219 15.3353 0.449219 20.4408C0.449219 25.5463 4.61259 29.7041 9.72498 29.7041H41.134C44.9607 29.7041 48.0832 26.5857 48.0832 22.7642C48.0832 18.9427 44.9607 15.8244 41.134 15.8244L41.1646 15.7938Z" fill="white"/>
<path d="M5.0688 38.3559C4.8239 38.3559 4.60959 38.2642 4.42591 38.0808C4.05855 37.7139 4.05855 37.1331 4.42591 36.7662L8.55869 32.639C8.92605 32.2721 9.50768 32.2721 9.87503 32.639C10.2424 33.0058 10.2424 33.5867 9.87503 33.9535L5.74229 38.0808C5.55862 38.2642 5.31369 38.3559 5.0994 38.3559H5.0688Z" fill="white"/>
<path d="M4.76412 45.6931C4.51921 45.6931 4.27429 45.6014 4.12122 45.418C3.75386 45.0511 3.75386 44.4703 4.12122 44.1034L16.0297 32.2109C16.3971 31.8441 16.9787 31.8441 17.3461 32.2109C17.7134 32.5778 17.7134 33.1587 17.3461 33.5256L5.43761 45.418C5.25393 45.6014 5.009 45.6931 4.79471 45.6931H4.76412Z" fill="white"/>
<path d="M14.7133 42.8194C14.4684 42.8194 14.2541 42.7277 14.0704 42.5442C13.7031 42.1774 13.7031 41.5965 14.0704 41.2297L22.6728 32.639C23.0401 32.2721 23.6217 32.2721 23.9891 32.639C24.3564 33.0058 24.3564 33.5867 23.9891 33.9535L15.3868 42.5442C15.2031 42.7277 14.9582 42.8194 14.7439 42.8194H14.7133Z" fill="white"/>
<path d="M24.6918 39.9152C24.4469 39.9152 24.2326 39.8235 24.049 39.6401C23.6816 39.2732 23.6816 38.6923 24.049 38.3254L26.5898 35.7574C26.9572 35.3905 27.5388 35.3905 27.9062 35.7574C28.2735 36.1242 28.2735 36.7051 27.9062 37.072L25.3653 39.6401C25.1816 39.8235 24.9367 39.9152 24.7224 39.9152H24.6918Z" fill="white"/>
<path d="M34.5825 37.0719C34.3376 37.0719 34.1233 36.9802 33.9396 36.7967C33.5722 36.4299 33.5722 35.849 33.9396 35.4822L36.7866 32.6084C37.154 32.2415 37.7356 32.2415 38.103 32.6084C38.4703 32.9753 38.4703 33.5561 38.103 33.923L35.256 36.7967C35.0723 36.9802 34.8274 37.0719 34.6131 37.0719H34.5825Z" fill="white"/>
</svg>
